<?xml version="1.0" encoding="UTF-8"?>
<svg width="46px" height="46px" viewBox="0 0 46 46" version="1.1" xmlns="http://www.w3.org/2000/svg" xmlns:xlink="http://www.w3.org/1999/xlink">
    <!-- Generator: Sketch 55.2 (78181) - https://sketchapp.com -->
    <title>ic-arrow-down</title>
    <desc>Created with Sketch.</desc>
    <g id="Main-page" stroke="none" stroke-width="1" fill="none" fill-rule="evenodd">
        <g id="Main---Desktop-XL-2" transform="translate(-412.000000, -550.000000)" fill="#FFFFFF" fill-rule="nonzero">
            <g id="Hero">
                <g id="Group-7" transform="translate(165.000000, 181.000000)">
                    <path d="M269.999945,369.468844 C282.30851,369.468844 292.281142,379.441477 292.281142,391.750041 C292.281142,404.058606 282.30851,414.031238 269.999945,414.031238 C257.691381,414.031238 247.718748,404.058606 247.718748,391.750041 C247.718748,379.441477 257.691381,369.468844 269.999945,369.468844 Z M289.406149,391.750041 C289.406149,380.977766 280.66439,372.343837 269.999945,372.343837 C259.22767,372.343837 250.593741,381.085596 250.593741,391.750041 C250.593741,402.522316 259.3355,411.156245 269.999945,411.156245 C280.77222,411.156245 289.406149,402.414486 289.406149,391.750041 Z M281.095622,391.345745 C281.517904,391.768027 281.517904,392.450803 281.095622,392.864136 L270.763615,403.205092 C270.341333,403.627374 269.658557,403.627374 269.236275,403.205092 L258.904268,392.864136 C258.481986,392.441854 258.481986,391.75899 258.904268,391.336796 L259.524224,390.71684 C259.946418,390.294558 260.638231,390.303595 261.060513,390.734827 L268.472605,398.425398 L268.472605,381.328191 C268.472605,380.735259 268.957795,380.250069 269.550727,380.250069 L270.449163,380.250069 C271.042095,380.250069 271.527285,380.735259 271.527285,381.328191 L271.527285,398.425398 L278.939377,390.743776 C279.352622,390.303595 280.053472,390.303595 280.475666,390.72579 L281.095622,391.345745 Z" id="ic-arrow-down"></path>
                </g>
            </g>
        </g>
    </g>
</svg>