<?xml version="1.0" encoding="UTF-8"?>
<svg width="15px" height="16px" viewBox="0 0 15 16" version="1.1" xmlns="http://www.w3.org/2000/svg" xmlns:xlink="http://www.w3.org/1999/xlink">
    <!-- Generator: Sketch 55.2 (78181) - https://sketchapp.com -->
    <title>ic-close</title>
    <desc>Created with Sketch.</desc>
    <g id="Main-page" stroke="none" stroke-width="1" fill="none" fill-rule="evenodd">
        <g id="Mobile-Pinned-Nav-Menu" transform="translate(-330.000000, -26.000000)" fill="#FFFFFF" fill-rule="nonzero">
            <path d="M339.090936,34.0000279 L344.889827,39.7989121 C345.036036,39.9451672 345.036036,40.1828375 344.889827,40.3290469 L343.829008,41.3898659 C343.682798,41.5360753 343.445128,41.5360753 343.298873,41.3898659 L342.307451,40.3984437 L337.499989,35.5909753 L331.700634,41.3898659 C331.554379,41.5360753 331.316708,41.5360753 331.170453,41.3898659 L330.10968,40.3290469 C329.963425,40.1828375 329.963425,39.9451672 330.10968,39.7989121 L335.909028,34.0000279 L330.10968,28.2006731 C329.963425,28.054418 329.963425,27.8167476 330.10968,27.6704925 L331.170957,26.6097193 C331.317166,26.4634641 331.554836,26.4634641 331.701092,26.6097193 L337.499989,32.4090676 L343.298873,26.610177 C343.445128,26.4639676 343.682798,26.4639676 343.829008,26.610177 L344.889827,27.670996 C345.036036,27.8172054 345.036036,28.0548757 344.889827,28.2011309 L343.898404,29.1925531 L339.090936,34.0000279 Z" id="ic-close"></path>
        </g>
    </g>
</svg>