<?xml version="1.0" encoding="UTF-8"?>
<svg width="46px" height="47px" viewBox="0 0 46 47" version="1.1" xmlns="http://www.w3.org/2000/svg" xmlns:xlink="http://www.w3.org/1999/xlink">
    <!-- Generator: Sketch 55.2 (78181) - https://sketchapp.com -->
    <title>ic-flag</title>
    <desc>Created with Sketch.</desc>
    <g id="Main-page" stroke="none" stroke-width="1" fill="none" fill-rule="evenodd">
        <g id="Main---Desktop-XL-2" transform="translate(-935.000000, -1044.000000)" fill="#7F1F72" fill-rule="nonzero">
            <g id="Features" transform="translate(0.000000, 804.000000)">
                <g id="Group-4" transform="translate(173.000000, 233.000000)">
                    <path d="M803.687401,16.4020109 L803.687401,22.789939 C801.432363,23.6793373 799.195224,24.5239016 796.787435,24.9191606 L796.787435,18.396555 C799.222159,17.9653235 801.665921,17.2016535 803.687401,16.4020109 Z M803.687401,35.4937623 C802.052231,36.5269629 799.545649,37.5781498 796.787435,37.8656667 L796.787435,31.3969321 C799.482741,31.037558 802.178047,30.0582284 803.687401,29.105922 L803.687401,35.4937623 Z M769.187483,24.4879291 L769.187483,18.1000888 C770.822653,17.0668882 773.329235,16.0157013 776.087449,15.7281844 L776.087449,22.2418407 C773.40118,22.6281504 770.642966,23.5715075 769.187483,24.4879291 Z M769.187483,36.4820412 L769.187483,30.0942009 C771.415585,29.3574663 773.751517,28.8453406 776.087449,28.6027455 L776.087449,35.0445446 C773.706595,35.3051259 771.262833,35.7902284 769.187483,36.4820412 Z M789.887469,30.8129491 L789.887469,24.6945517 C792.420986,25.2426499 794.595217,25.2785347 796.787435,24.9191606 L796.787435,31.3969321 C794.352622,31.7203338 792.358166,31.4957249 789.887469,30.8129491 L789.887469,37.0031161 C787.659279,36.3383266 785.476098,35.5027993 782.987415,35.0805171 L782.987415,28.8184051 C785.431177,29.3214938 787.632343,30.1929937 789.887469,30.8129491 Z M804.936261,11.1461641 C806.36472,10.4813745 807.99989,11.5235245 807.99989,13.0957863 L807.99989,36.5988202 C807.99989,37.3175685 807.649465,37.9824458 807.056533,38.3867417 C803.63353,40.7046873 799.985829,42.2500137 795.376874,42.2500137 C789.096775,42.2500137 785.026881,39.1324255 779.941772,39.1324255 C774.22767,39.1324255 770.571108,40.4441937 767.749986,41.746925 L767.749986,52.6718639 C767.749986,53.2647961 767.264796,53.7499863 766.671864,53.7499863 L765.953116,53.7499863 C765.360183,53.7499863 764.874993,53.2647961 764.874993,52.6718639 L764.874993,16.1324803 C763.131993,15.5126126 761.901207,13.8055854 762.008949,11.8199906 C762.125816,9.61882396 763.931636,7.8399395 766.141752,7.75009596 C768.810122,7.65130317 770.948381,9.96924885 770.580058,12.6376194 C772.673395,11.8199906 774.937469,11.3438374 777.49801,11.3438374 C783.778108,11.3438374 787.848003,14.4614256 792.942149,14.4614256 C797.182694,14.4614256 801.629949,12.6825412 804.936261,11.1461641 Z M766.31249,13.8594564 C767.300769,13.8594564 768.10936,13.0508646 768.10936,12.0625857 C768.10936,11.0743068 767.300769,10.265715 766.31249,10.265715 C765.324211,10.265715 764.515619,11.0743068 764.515619,12.0625857 C764.515619,13.0508646 765.324211,13.8594564 766.31249,13.8594564 Z M805.124897,36.2574323 L805.124897,14.2188305 C802.115139,15.6473779 797.056965,17.3364188 792.933112,17.3364188 C787.219098,17.3364188 783.212024,14.2188305 777.49801,14.2188305 C773.544894,14.2188305 769.825337,15.8360142 767.749986,17.3364188 L767.749986,38.5933643 C770.750795,37.1738539 775.808969,36.2574323 779.941772,36.2574323 C785.655785,36.2574323 789.66286,39.3750206 795.376874,39.3750206 C799.329989,39.3750206 803.049547,37.7578369 805.124897,36.2574323 Z M789.887469,18.5043847 L789.887469,24.6945517 C787.443707,24.1554905 785.260527,23.2840784 782.987415,22.6821092 L782.987415,16.581698 C785.188581,17.228589 787.398785,18.0821026 789.887469,18.5043847 Z M776.087449,22.2328915 C778.378459,21.9004529 780.319132,21.9813471 782.987415,22.6821092 L782.987415,28.8273544 C781.136673,28.4500817 779.160115,28.2793439 776.087449,28.6027455 L776.087449,22.2328915 Z" id="ic-flag"></path>
                </g>
            </g>
        </g>
    </g>
</svg>