<?xml version="1.0" encoding="UTF-8"?>
<svg width="53px" height="47px" viewBox="0 0 53 47" version="1.1" xmlns="http://www.w3.org/2000/svg" xmlns:xlink="http://www.w3.org/1999/xlink">
    <!-- Generator: Sketch 55.2 (78181) - https://sketchapp.com -->
    <title>ic-graph</title>
    <desc>Created with Sketch.</desc>
    <g id="Main-page" stroke="none" stroke-width="1" fill="none" fill-rule="evenodd">
        <g id="Main---Desktop-XL-2" transform="translate(-931.000000, -1164.000000)" fill="#7F1F72" fill-rule="nonzero">
            <g id="Features" transform="translate(0.000000, 804.000000)">
                <g id="Group-4" transform="translate(173.000000, 233.000000)">
                    <path d="M765.812483,159.375021 C766.606686,159.375021 767.249979,160.018314 767.249979,160.812517 L767.249979,172.31249 C767.249979,173.106693 766.606686,173.749986 765.812483,173.749986 L760.062497,173.749986 C759.268294,173.749986 758.625,173.106693 758.625,172.31249 L758.625,160.812517 C758.625,160.018314 759.268294,159.375021 760.062497,159.375021 L765.812483,159.375021 Z M764.374986,170.874993 L764.374986,162.250014 L761.499993,162.250014 L761.499993,170.874993 L764.374986,170.874993 Z M808.93738,145.000055 C809.731583,145.000055 810.374877,145.643349 810.374877,146.437551 L810.374877,172.31249 C810.374877,173.106693 809.731583,173.749986 808.93738,173.749986 L803.187394,173.749986 C802.393191,173.749986 801.749897,173.106693 801.749897,172.31249 L801.749897,146.437551 C801.749897,145.643349 802.393191,145.000055 803.187394,145.000055 L808.93738,145.000055 Z M807.499883,170.874993 L807.499883,147.875048 L804.62489,147.875048 L804.62489,170.874993 L807.499883,170.874993 Z M803.795592,135.717393 L795.745647,142.156472 C795.899276,142.59946 795.999911,143.067541 795.999911,143.562558 C795.999911,145.944289 794.069152,147.875048 791.687421,147.875048 C789.30569,147.875048 787.374931,145.944289 787.374931,143.562558 C787.374931,143.067541 787.475567,142.59946 787.629196,142.156472 L779.57925,135.716515 C778.918847,136.127128 778.147105,136.375075 777.312455,136.375075 C776.647578,136.375075 776.025868,136.212497 775.463468,135.943844 L766.818748,144.588564 C767.087401,145.150964 767.249979,145.772674 767.249979,146.437551 C767.249979,148.819282 765.319221,150.750041 762.93749,150.750041 C760.555759,150.750041 758.625,148.819282 758.625,146.437551 C758.625,144.05582 760.555759,142.125062 762.93749,142.125062 C763.602367,142.125062 764.224077,142.28764 764.786477,142.556293 L773.431197,133.911573 C773.162544,133.349173 772.999966,132.727463 772.999966,132.062586 C772.999966,129.680855 774.930724,127.750096 777.312455,127.750096 C779.694187,127.750096 781.624945,129.680855 781.624945,132.062586 C781.624945,132.557603 781.52431,133.025684 781.370681,133.467707 L789.420627,139.907751 C790.081029,139.497138 790.852771,139.249191 791.687421,139.249191 C792.522071,139.249191 793.293813,139.497138 793.954216,139.907751 L802.004161,133.467707 C801.850532,133.024806 801.749897,132.557603 801.749897,132.062586 C801.749897,129.680855 803.680656,127.750096 806.062387,127.750096 C808.444118,127.750096 810.374877,129.680855 810.374877,132.062586 C810.374877,134.444317 808.444118,136.375075 806.062387,136.375075 C805.227737,136.375075 804.455995,136.127128 803.795592,135.717393 Z M806.062387,130.625089 C805.269939,130.625089 804.62489,131.270138 804.62489,132.062586 C804.62489,132.855034 805.269939,133.500082 806.062387,133.500082 C806.854835,133.500082 807.499883,132.855034 807.499883,132.062586 C807.499883,131.270138 806.854835,130.625089 806.062387,130.625089 Z M762.93749,147.875048 C763.729938,147.875048 764.374986,147.229999 764.374986,146.437551 C764.374986,145.645103 763.729938,145.000055 762.93749,145.000055 C762.145042,145.000055 761.499993,145.645103 761.499993,146.437551 C761.499993,147.229999 762.145042,147.875048 762.93749,147.875048 Z M777.312455,133.500082 C778.104904,133.500082 778.749952,132.855034 778.749952,132.062586 C778.749952,131.270138 778.104904,130.625089 777.312455,130.625089 C776.520007,130.625089 775.874959,131.270138 775.874959,132.062586 C775.874959,132.855034 776.520007,133.500082 777.312455,133.500082 Z M791.687421,145.000055 C792.479869,145.000055 793.124918,144.355006 793.124918,143.562558 C793.124918,142.77011 792.479869,142.125062 791.687421,142.125062 C790.894973,142.125062 790.249925,142.77011 790.249925,143.562558 C790.249925,144.355006 790.894973,145.000055 791.687421,145.000055 Z M780.187449,145.000055 C780.981651,145.000055 781.624945,145.643349 781.624945,146.437551 L781.624945,172.31249 C781.624945,173.106693 780.981651,173.749986 780.187449,173.749986 L774.437462,173.749986 C773.643259,173.749986 772.999966,173.106693 772.999966,172.31249 L772.999966,146.437551 C772.999966,145.643349 773.643259,145.000055 774.437462,145.000055 L780.187449,145.000055 Z M778.749952,170.874993 L778.749952,147.875048 L775.874959,147.875048 L775.874959,170.874993 L778.749952,170.874993 Z M794.562414,156.500027 C795.356617,156.500027 795.999911,157.143321 795.999911,157.937524 L795.999911,172.31249 C795.999911,173.106693 795.356617,173.749986 794.562414,173.749986 L788.812428,173.749986 C788.018225,173.749986 787.374931,173.106693 787.374931,172.31249 L787.374931,157.937524 C787.374931,157.143321 788.018225,156.500027 788.812428,156.500027 L794.562414,156.500027 Z M793.124918,170.874993 L793.124918,159.375021 L790.249925,159.375021 L790.249925,170.874993 L793.124918,170.874993 Z" id="ic-graph"></path>
                </g>
            </g>
        </g>
    </g>
</svg>