<?xml version="1.0" encoding="UTF-8"?>
<svg width="22px" height="21px" viewBox="0 0 22 21" version="1.1" xmlns="http://www.w3.org/2000/svg" xmlns:xlink="http://www.w3.org/1999/xlink">
    <!-- Generator: Sketch 55.2 (78181) - https://sketchapp.com -->
    <title>ic-linkedin</title>
    <desc>Created with Sketch.</desc>
    <g id="Contact-Us/Share" stroke="none" stroke-width="1" fill="none" fill-rule="evenodd">
        <g id="Share---Desktop" transform="translate(-789.000000, -385.000000)" fill="#FFFFFF" fill-rule="nonzero">
            <g id="Overlay" transform="translate(515.000000, 293.000000)">
                <g id="Group-3" transform="translate(100.000000, 79.000000)">
                    <g id="Group-2-Copy-2" transform="translate(160.000000, 0.000000)">
                        <path d="M19.2006266,34 L14.8468925,34 L14.8468925,19.9797392 L19.2006266,19.9797392 L19.2006266,34 Z M17.0214021,18.0672072 C15.6292087,18.0672072 14.5,16.9141032 14.5,15.5219099 C14.5,14.1301286 15.6295749,13.0005078 17.0214021,13.0005078 C18.4132292,13.0005078 19.5428041,14.1301286 19.5428041,15.5219099 C19.5428041,16.9141032 18.4131376,18.0672072 17.0214021,18.0672072 Z M35.4999499,34 L31.150885,34 L31.150885,27.1750346 C31.150885,25.5484668 31.1180634,23.4625343 28.8872948,23.4625343 C26.6237046,23.4625343 26.2768579,25.2297267 26.2768579,27.0578474 L26.2768579,34 L21.927793,34 L21.927793,19.9797392 L26.1034117,19.9797392 L26.1034117,21.8922255 L26.1643399,21.8922255 C26.7456068,20.7906656 28.165449,19.6281776 30.2836996,19.6281776 C34.689939,19.6281776 35.4999499,22.5297057 35.4999499,26.298465 L35.4999499,34 Z" id="ic-linkedin"></path>
                    </g>
                </g>
            </g>
        </g>
    </g>
</svg>