<?xml version="1.0" encoding="UTF-8"?>
<svg width="53px" height="47px" viewBox="0 0 53 47" version="1.1" xmlns="http://www.w3.org/2000/svg" xmlns:xlink="http://www.w3.org/1999/xlink">
    <!-- Generator: Sketch 55.2 (78181) - https://sketchapp.com -->
    <title>ic-monitor</title>
    <desc>Created with Sketch.</desc>
    <g id="Main-page" stroke="none" stroke-width="1" fill="none" fill-rule="evenodd">
        <g id="Main---Desktop-XL-2" transform="translate(-173.000000, -1044.000000)" fill="#7F1F72" fill-rule="nonzero">
            <g id="Features" transform="translate(0.000000, 804.000000)">
                <g id="Group-4" transform="translate(173.000000, 233.000000)">
                    <path d="M48.0623869,7.75009596 C50.4432406,7.75009596 52.3748766,9.68173198 52.3748766,12.0625857 L52.3748766,37.937524 C52.3748766,40.3183777 50.4432406,42.2500137 48.0623869,42.2500137 L30.812428,42.2500137 L32.9686729,50.8749931 L39.4374075,50.8749931 C40.228013,50.8749931 40.874904,51.5218842 40.874904,52.3124897 C40.874904,53.1030953 40.228013,53.7499863 39.4374075,53.7499863 L13.5624692,53.7499863 C12.7718636,53.7499863 12.1249726,53.1030953 12.1249726,52.3124897 C12.1249726,51.5218842 12.7718636,50.8749931 13.5624692,50.8749931 L20.0312037,50.8749931 L22.1874486,42.2500137 L4.93748972,42.2500137 C2.55663602,42.2500137 0.625,40.3183777 0.625,37.937524 L0.625,12.0625857 C0.625,9.68173198 2.55663602,7.75009596 4.93748972,7.75009596 L48.0623869,7.75009596 Z M22.9960404,50.8749931 L30.0038362,50.8749931 L28.5663396,45.1250069 L24.433537,45.1250069 L22.9960404,50.8749931 Z M49.4998835,37.937524 L49.4998835,12.0625857 C49.4998835,11.2719801 48.8529925,10.6250891 48.0623869,10.6250891 L4.93748972,10.6250891 C4.14688415,10.6250891 3.49999315,11.2719801 3.49999315,12.0625857 L3.49999315,37.937524 C3.49999315,38.7281296 4.14688415,39.3750206 4.93748972,39.3750206 L48.0623869,39.3750206 C48.8529925,39.3750206 49.4998835,38.7281296 49.4998835,37.937524 Z" id="ic-monitor"></path>
                </g>
            </g>
        </g>
    </g>
</svg>