<?xml version="1.0" encoding="UTF-8"?>
<svg width="58px" height="47px" viewBox="0 0 58 47" version="1.1" xmlns="http://www.w3.org/2000/svg" xmlns:xlink="http://www.w3.org/1999/xlink">
    <!-- Generator: Sketch 55.2 (78181) - https://sketchapp.com -->
    <title>ic-networks</title>
    <desc>Created with Sketch.</desc>
    <g id="Main-page" stroke="none" stroke-width="1" fill="none" fill-rule="evenodd">
        <g id="Main---Desktop-XL-2" transform="translate(-550.000000, -1044.000000)" fill="#7F1F72" fill-rule="nonzero">
            <g id="Features" transform="translate(0.000000, 804.000000)">
                <g id="Group-4" transform="translate(173.000000, 233.000000)">
                    <path d="M423.393605,25.9703475 L419.081115,29.2047148 L417.356189,26.9047553 L421.668679,23.6703881 L423.393605,25.9703475 Z M428.999877,25.0000548 C425.828417,25.0000548 423.24989,22.4215278 423.24989,19.2500685 C423.24989,18.0551671 423.609264,16.9501091 424.22922,16.0336875 C424.642465,15.422769 425.172577,14.8926571 425.783496,14.4794119 C426.699917,13.8594564 427.804975,13.5000823 428.999877,13.5000823 C430.194778,13.5000823 431.299836,13.8594564 432.216258,14.4794119 C432.521761,14.6860345 432.809278,14.9195926 433.069771,15.1801739 C433.330353,15.4406675 433.563911,15.7281844 433.770533,16.0336875 C434.390489,16.9501091 434.749863,18.0551671 434.749863,19.2500685 C434.749863,20.44497 434.390489,21.550028 433.770533,22.4664496 C433.357288,23.0773681 432.827176,23.60748 432.216258,24.0207252 C431.299836,24.6406807 430.194778,25.0000548 428.999877,25.0000548 Z M428.999877,16.3750754 C427.418665,16.3750754 426.124883,17.6688574 426.124883,19.2500685 C426.124883,20.8312797 427.418665,22.1250617 428.999877,22.1250617 C430.581088,22.1250617 431.87487,20.8312797 431.87487,19.2500685 C431.87487,17.6688574 430.581088,16.3750754 428.999877,16.3750754 Z M386.216367,30.2918742 C386.827286,30.7051194 387.357398,31.2352313 387.770643,31.8461498 C388.390598,32.7625714 388.749973,33.8676294 388.749973,35.0625308 C388.749973,38.2339901 386.171446,40.8125171 382.999986,40.8125171 C379.828527,40.8125171 377.25,38.2339901 377.25,35.0625308 C377.25,33.8676294 377.609374,32.7625714 378.22933,31.8461498 C378.642575,31.2352313 379.172687,30.7051194 379.783605,30.2918742 C380.700027,29.6719187 381.805085,29.3125446 382.999986,29.3125446 C384.194888,29.3125446 385.299946,29.6719187 386.216367,30.2918742 Z M382.999986,37.937524 C384.581197,37.937524 385.874979,36.643742 385.874979,35.0625308 C385.874979,33.4813197 384.581197,32.1875377 382.999986,32.1875377 C381.418775,32.1875377 380.124993,33.4813197 380.124993,35.0625308 C380.124993,36.643742 381.418775,37.937524 382.999986,37.937524 Z M390.906217,36.5000274 L390.906217,33.6250343 L395.218707,33.6250343 L395.218707,36.5000274 L390.906217,36.5000274 Z M433.069771,43.9301054 C433.321316,44.190599 433.563911,44.4781158 433.770533,44.783619 C434.390489,45.7000406 434.749863,46.8050985 434.749863,48 C434.749863,49.1949015 434.390489,50.2999594 433.77957,51.216381 C433.366237,51.8272995 432.836213,52.3574115 432.225295,52.7706567 C431.308873,53.3906121 430.203815,53.7499863 429.008826,53.7499863 C425.837367,53.7499863 423.25884,51.1714593 423.25884,48 C423.25884,47.4340033 423.348683,46.8949421 423.501435,46.3738671 L415.199945,41.3965001 C413.349115,43.6515378 410.581952,45.1250069 407.437428,45.1250069 C401.876078,45.1250069 397.374952,40.6238808 397.374952,35.0625308 C397.374952,31.5406467 399.189809,28.4500817 401.930037,26.653211 L398.426139,19.1422388 C398.084751,19.2051468 397.734326,19.2500685 397.374952,19.2500685 C394.203493,19.2500685 391.624966,16.6715415 391.624966,13.5000823 C391.624966,12.3051808 391.98434,11.2001228 392.604295,10.2837012 C393.017541,9.67278272 393.547652,9.14267077 394.158571,8.7294256 C395.074993,8.10947011 396.180051,7.75009596 397.374952,7.75009596 C398.569853,7.75009596 399.674911,8.10947011 400.591333,8.7294256 C401.202252,9.14267077 401.732364,9.67278272 402.145609,10.2837012 C402.765564,11.2001228 403.124938,12.3051808 403.124938,13.5000823 C403.124938,15.2880037 402.29836,16.8602656 401.013615,17.9113648 L404.544449,25.4672588 C405.469819,25.1977282 406.422214,25.0000548 407.437428,25.0000548 C412.998778,25.0000548 417.499904,29.5011809 417.499904,35.0625308 C417.499904,36.4371194 417.221424,37.7578369 416.718248,38.9527384 L424.965867,43.9031699 C425.217499,43.6515378 425.487029,43.4269289 425.783496,43.2293433 C426.699917,42.6093879 427.804975,42.2500137 428.999877,42.2500137 C430.194778,42.2500137 431.299836,42.6093879 432.216258,43.2293433 C432.521761,43.4359659 432.809278,43.669524 433.069771,43.9301054 Z M397.374952,16.3750754 C398.956163,16.3750754 400.249945,15.0812934 400.249945,13.5000823 C400.249945,11.9188711 398.956163,10.6250891 397.374952,10.6250891 C395.793741,10.6250891 394.499959,11.9188711 394.499959,13.5000823 C394.499959,15.0812934 395.793741,16.3750754 397.374952,16.3750754 Z M407.437428,42.2500137 C411.399493,42.2500137 414.624911,39.0245957 414.624911,35.0625308 C414.624911,31.100466 411.399493,27.875048 407.437428,27.875048 C403.475363,27.875048 400.249945,31.100466 400.249945,35.0625308 C400.249945,39.0245957 403.475363,42.2500137 407.437428,42.2500137 Z M428.999877,50.8749931 C430.581088,50.8749931 431.87487,49.5812111 431.87487,48 C431.87487,46.4187889 430.581088,45.1250069 428.999877,45.1250069 C427.418665,45.1250069 426.124883,46.4187889 426.124883,48 C426.124883,49.5812111 427.418665,50.8749931 428.999877,50.8749931 Z" id="ic-networks"></path>
                </g>
            </g>
        </g>
    </g>
</svg>