<?xml version="1.0" encoding="UTF-8"?>
<svg width="42px" height="55px" viewBox="0 0 42 55" version="1.1" xmlns="http://www.w3.org/2000/svg" xmlns:xlink="http://www.w3.org/1999/xlink">
    <!-- Generator: Sketch 55.2 (78181) - https://sketchapp.com -->
    <title>ic-ribbon</title>
    <desc>Created with Sketch.</desc>
    <g id="Main-page" stroke="none" stroke-width="1" fill="none" fill-rule="evenodd">
        <g id="Main---Desktop-XL-2" transform="translate(-179.000000, -1258.000000)" fill="#7F1F72" fill-rule="nonzero">
            <g id="Features" transform="translate(0.000000, 804.000000)">
                <g id="Group-4" transform="translate(173.000000, 233.000000)">
                    <path d="M26.9999517,231.869836 C32.5834994,231.869836 37.1249276,236.412294 37.1249276,241.994812 C37.1249276,247.577226 32.5823664,252.119787 26.9999517,252.119787 C21.4175371,252.119787 16.8749759,247.577226 16.8749759,241.994812 C16.8749759,236.412294 21.4175371,231.869836 26.9999517,231.869836 Z M26.9999517,248.744795 C30.7219392,248.744795 33.7499356,245.716799 33.7499356,241.994812 C33.7499356,238.272824 30.7219392,235.244828 26.9999517,235.244828 C23.2779643,235.244828 20.2499678,238.272824 20.2499678,241.994812 C20.2499678,245.716799 23.2779643,248.744795 26.9999517,248.744795 Z M45.5233718,250.472357 C43.6744801,252.344423 43.8833572,252.010096 43.2125405,254.547623 C43.0005735,255.352335 42.5892052,256.061158 42.0924527,256.696028 L47.1233206,269.074879 C47.5779475,270.189714 46.7531509,271.399408 45.5634374,271.399408 C45.5054504,271.399408 45.8703672,271.412077 39.9399271,271.185278 L36.1166941,275.222641 C35.7770113,275.581276 35.334023,275.749984 34.8953606,275.749984 C34.2446282,275.749984 33.6044015,275.377651 33.3280616,274.699522 L27.7972483,261.089863 C27.5838393,261.017044 27.2275742,260.957924 27.0020117,260.957924 C26.7755222,260.957924 26.417918,261.017456 26.2036852,261.090893 L20.6718418,274.699522 C20.394472,275.377651 19.7552752,275.749984 19.1045428,275.749984 C18.6658804,275.749984 18.2228921,275.581276 17.8832094,275.222641 L14.0599763,271.184248 C8.1295362,271.411047 8.49445309,271.398378 8.43646601,271.398378 C7.24675251,271.398378 6.42195589,270.188581 6.8765828,269.073849 L11.9084807,256.693969 C11.4117282,256.058995 11.0003599,255.350275 10.7883929,254.544533 C10.1197391,252.023795 10.3317061,252.343393 8.47756165,250.474417 C6.99471988,248.963045 6.41042027,246.747177 6.95146131,244.688481 C7.62536794,242.128707 7.62536794,242.524214 6.95146131,239.975049 C6.41042027,237.91522 6.99358691,235.698322 8.47653168,234.18798 C10.3254233,232.315914 10.1165462,232.650241 10.787363,230.114774 C11.3315969,228.046603 12.9367986,226.417094 14.9797358,225.862354 C17.4592755,225.185255 17.1333943,225.385583 18.9579787,223.521963 C20.4577119,221.997922 22.6757433,221.395701 24.7060119,221.955797 C27.170823,222.631866 26.812189,222.642372 29.2906987,221.955797 C31.3378587,221.401057 33.5421915,221.997922 35.0419247,223.51877 C36.8485878,225.3793 36.5659651,225.19576 39.0233606,225.862354 C41.0641348,226.417094 42.6694395,228.046603 43.2125405,230.116937 C43.8811943,232.637675 43.6692273,232.318077 45.5233718,234.18695 C47.0063165,235.698322 47.5906161,237.91419 47.0494721,239.972989 C46.3755655,242.529467 46.3755655,242.13396 47.0494721,244.686318 C47.5894832,246.746147 47.0063165,248.963045 45.5233718,250.472357 Z M18.5329118,270.998649 L22.1019493,262.219426 C20.7129374,262.121373 19.3577084,261.548609 18.3093062,260.479196 C17.1354542,259.286392 17.2841813,259.419258 14.9775729,258.801176 C14.8921887,258.778001 14.8204001,258.726297 14.7371788,258.6989 L10.9876913,267.925231 C14.4639289,267.791335 13.5305739,267.827178 15.4606268,267.753329 C16.7863988,269.15398 16.1503949,268.482133 18.5329118,270.998649 Z M43.0132421,267.924201 L39.2638576,258.6989 C39.1805333,258.725267 39.1087447,258.776971 39.0233606,258.800146 C36.7283907,259.403397 36.8950392,259.25364 35.6916272,260.478166 C34.641165,261.547579 33.285833,262.106542 31.8925983,262.202535 L35.4680216,270.998649 C37.8505385,268.482133 37.2156676,269.15295 38.5403066,267.753329 C40.4682996,267.827178 39.5422573,267.791335 43.0132421,267.924201 Z M39.9494028,253.686983 C40.8026265,250.433321 40.7530851,250.501917 43.1165477,248.106732 C43.768413,247.442198 44.0256985,246.460331 43.7853045,245.543765 C42.924665,242.336554 42.9214721,242.334391 43.7853045,239.115542 C44.0268314,238.198976 43.769443,237.217109 43.1165477,236.551545 C40.7435064,234.159553 40.7994336,234.205901 39.9494028,230.975413 C39.7120987,230.069455 39.0159448,229.357543 38.136354,229.118179 C34.9417091,228.251154 34.9859976,228.296575 32.6351006,225.884498 C31.9896211,225.232633 31.0404046,224.973185 30.1766753,225.212652 C26.9673018,226.098628 27.0315717,226.096465 23.8190053,225.212652 C22.8212774,224.943728 21.9121266,225.328626 21.3636698,225.888721 C18.9959844,228.295442 19.1129886,228.231172 15.8656094,229.118179 C14.9817957,229.356513 14.2867748,230.068425 14.0494707,230.973353 C13.196247,234.227015 13.2468183,234.159553 10.8822228,236.553708 C10.2304605,237.218139 9.973072,238.200006 10.213569,239.116572 C11.0784313,242.330168 11.0731785,242.331198 10.213569,245.544898 C9.97204203,246.461361 10.2294305,247.443331 10.8822228,248.108792 C13.255264,250.500784 13.1994399,250.454436 14.0494707,253.684923 C14.2867748,254.590881 14.9817957,255.302794 15.8656094,255.543291 C18.3810949,256.21936 18.8809373,256.247787 20.7140704,258.112437 C21.5578184,258.971017 22.8498075,259.119744 23.8517582,258.48374 C25.7638898,257.274045 28.2349837,257.275075 30.1471152,258.481577 C31.1554518,259.12819 32.4410551,258.969987 33.2848031,258.1146 C35.1389475,256.224613 35.6420858,256.203499 38.1331611,255.544321 C39.0170778,255.303824 39.7120987,254.591911 39.9494028,253.686983 Z" id="ic-ribbon"></path>
                </g>
            </g>
        </g>
    </g>
</svg>