<?xml version="1.0" encoding="UTF-8"?>
<svg width="27px" height="24px" viewBox="0 0 27 24" version="1.1" xmlns="http://www.w3.org/2000/svg" xmlns:xlink="http://www.w3.org/1999/xlink">
    <!-- Generator: Sketch 55.2 (78181) - https://sketchapp.com -->
    <title></title>
    <desc>Created with Sketch.</desc>
    <g id="Main-page" stroke="none" stroke-width="1" fill="none" fill-rule="evenodd">
        <g id="Main---Desktop-XL-2" transform="translate(-1374.000000, -35.000000)" fill="#FFFFFF" fill-rule="nonzero">
            <path d="M1400.47996,44.2039161 C1401.17329,44.9291035 1401.17329,46.0709465 1400.48001,46.796134 L1392.23012,55.4211134 C1391.07139,56.6325363 1388.99996,55.8237156 1388.99996,54.1250045 L1388.99996,50.0075216 C1381.76132,50.0924366 1378.73139,50.7915774 1380.50668,57.0898869 C1380.8977,58.4735201 1379.31389,59.5382759 1378.17795,58.7075283 C1376.61749,57.5666009 1374,54.9767175 1374,50.5245644 C1374,42.5048387 1381.24441,41.101064 1388.99996,41.0080008 L1388.99996,36.875778 C1388.99996,35.1756478 1391.07258,34.3695737 1392.23012,35.5797148 L1400.47996,44.2039161 Z M1399.39589,45.759256 C1399.45352,45.6992891 1399.50031,45.5832005 1399.50031,45.500025 C1399.50031,45.4168496 1399.45352,45.300761 1399.39589,45.2407941 L1391.14591,36.6158146 C1390.91483,36.3739329 1390.49996,36.5346533 1390.49996,36.8750456 L1390.49996,42.5000322 C1383.13525,42.5000322 1375.5,43.0240788 1375.5,50.5245644 C1375.5,54.0120287 1377.37499,56.2512659 1379.0634,57.4859431 C1376.65717,48.9550339 1382.46577,48.5000179 1390.49996,48.5000179 L1390.49996,54.1250045 C1390.49996,54.4653052 1390.91465,54.6261172 1391.14591,54.3842354 L1399.39589,45.759256 Z" id=""></path>
        </g>
    </g>
</svg>