<?xml version="1.0" encoding="UTF-8"?>
<svg width="24px" height="20px" viewBox="0 0 24 20" version="1.1" xmlns="http://www.w3.org/2000/svg" xmlns:xlink="http://www.w3.org/1999/xlink">
    <!-- Generator: Sketch 55.2 (78181) - https://sketchapp.com -->
    <title>ic-twitter</title>
    <desc>Created with Sketch.</desc>
    <g id="Contact-Us/Share" stroke="none" stroke-width="1" fill="none" fill-rule="evenodd">
        <g id="Share---Desktop" transform="translate(-708.000000, -387.000000)" fill="#FFFFFF" fill-rule="nonzero">
            <g id="Overlay" transform="translate(515.000000, 293.000000)">
                <g id="Group-3" transform="translate(100.000000, 79.000000)">
                    <g id="Group-2-Copy" transform="translate(80.000000, 0.000000)">
                        <path d="M34.5329229,20.1117122 C34.5481664,20.3248922 34.5481664,20.5381638 34.5481664,20.7513438 C34.5481664,27.2538155 29.5989747,34.7461988 20.5532657,34.7461988 C17.7664529,34.7461988 15.1776681,33.9390718 13,32.5381352 C13.3959646,32.5837741 13.77664,32.5990176 14.1878023,32.5990176 C16.4872353,32.5990176 18.6040211,31.8223776 20.2944009,30.4975212 C18.1319763,30.4517907 16.3197858,29.0355648 15.6953976,27.0863202 C16,27.1320049 16.3045423,27.1624461 16.624381,27.1624461 C17.0659846,27.1624461 17.5076339,27.1015179 17.9187505,26.9949508 C15.6649564,26.538058 13.9745765,24.5584179 13.9745765,22.1675697 L13.9745765,22.1066873 C14.6293601,22.4721649 15.3908482,22.7005885 16.1978836,22.7309839 C14.8730272,21.847731 14.0050635,20.3401357 14.0050635,18.6345581 C14.0050635,17.720864 14.248639,16.8832958 14.6750906,16.1523405 C17.09638,19.1370899 20.7360045,21.0862887 24.817141,21.2995145 C24.7410151,20.9340369 24.6953304,20.5533615 24.6953304,20.1726404 C24.6953304,17.4619993 26.888242,15.2538899 29.6140809,15.2538899 C31.0303525,15.2538899 32.3094785,15.8477911 33.2080207,16.8071699 C34.3196513,16.5939899 35.3855973,16.1828275 36.3298241,15.6193676 C35.9643007,16.761531 35.1876607,17.7209098 34.1673995,18.3300087 C35.1572653,18.2234415 36.1166441,17.9492875 36.9998512,17.5686122 C36.3299157,18.5431887 35.4923017,19.4111981 34.5329229,20.1117122 Z" id="ic-twitter"></path>
                    </g>
                </g>
            </g>
        </g>
    </g>
</svg>