<?xml version="1.0" encoding="UTF-8"?>
<svg width="53px" height="35px" viewBox="0 0 53 35" version="1.1" xmlns="http://www.w3.org/2000/svg" xmlns:xlink="http://www.w3.org/1999/xlink">
    <!-- Generator: Sketch 55.2 (78181) - https://sketchapp.com -->
    <title>ic-view</title>
    <desc>Created with Sketch.</desc>
    <g id="Main-page" stroke="none" stroke-width="1" fill="none" fill-rule="evenodd">
        <g id="Main---Desktop-XL-2" transform="translate(-552.000000, -1262.000000)" fill="#7F1F72" fill-rule="nonzero">
            <g id="Features" transform="translate(0.000000, 804.000000)">
                <g id="Group-4" transform="translate(173.000000, 233.000000)">
                    <path d="M405.499938,245.625034 C402.325935,245.625034 399.749952,243.049052 399.749952,239.875048 C399.749952,239.787924 399.77601,239.708873 399.77601,239.619029 C400.165566,239.760462 400.81816,239.875223 401.232546,239.875223 C403.588307,239.875223 405.500114,237.963416 405.500114,235.607656 C405.500114,235.19327 405.385353,234.540676 405.243919,234.15112 C405.331043,234.146645 405.410095,234.125062 405.499938,234.125062 C408.673942,234.125062 411.249925,236.701044 411.249925,239.875048 C411.249925,243.049052 408.673942,245.625034 405.499938,245.625034 Z M431.062179,241.438361 C431.234759,241.779661 431.374789,242.367153 431.374789,242.749602 C431.374789,243.132052 431.234759,243.719544 431.062179,244.060844 C426.19273,253.563641 416.544376,260 405.499938,260 C394.455501,260 384.809867,253.568115 379.937698,244.061722 C379.765117,243.720422 379.625088,243.132929 379.625088,242.75048 C379.625088,242.368031 379.765117,241.780538 379.937698,241.439238 C384.807147,231.936442 394.455501,225.500082 405.499938,225.500082 C416.544376,225.500082 426.19001,231.931967 431.062179,241.438361 Z M405.499938,228.375075 C399.158862,228.382007 394.006897,233.533972 393.999966,239.875048 C393.999966,246.223055 399.151931,251.375021 405.499938,251.375021 C411.847946,251.375021 416.999911,246.223055 416.999911,239.875048 C416.999911,233.527041 411.847946,228.375075 405.499938,228.375075 Z M405.499938,257.125007 C415.145572,257.125007 423.960065,251.616738 428.499883,242.750041 C426.330302,238.490896 421.106655,233.285323 416.839965,231.13057 C418.71501,233.558188 419.874904,236.566104 419.874904,239.875048 C419.874904,247.810057 413.434947,254.250014 405.499938,254.250014 C397.564929,254.250014 391.124973,247.810057 391.124973,239.875048 C391.124973,236.566104 392.284867,233.558188 394.159912,231.13057 C389.893221,233.285323 384.669574,238.490896 382.499993,242.750041 C387.040689,251.616738 395.854305,257.125007 405.499938,257.125007 Z" id="ic-view"></path>
                </g>
            </g>
        </g>
    </g>
</svg>